<mxfile host="app.diagrams.net" modified="2024-04-05T13:58:16.382Z" agent="Mozilla/5.0 (Windows NT 10.0; Win64; x64) AppleWebKit/537.36 (KHTML, like Gecko) Chrome/123.0.0.0 Safari/537.36 Edg/123.0.0.0" etag="XMSwd0VQqFHdHOmkQ_Pi" version="24.2.2" type="device">
  <diagram name="Page-1" id="6C5ot3M-R0AYYM9mc1eD">
    <mxGraphModel dx="1324" dy="273" grid="1" gridSize="10" guides="1" tooltips="1" connect="1" arrows="1" fold="1" page="1" pageScale="1" pageWidth="850" pageHeight="1100" math="0" shadow="0">
      <root>
        <mxCell id="0" />
        <mxCell id="1" parent="0" />
        <mxCell id="y5Li-COG7_jY7tWwNhx1-1" value="User&lt;div&gt;&lt;br&gt;&lt;/div&gt;" style="shape=umlActor;verticalLabelPosition=bottom;verticalAlign=top;html=1;outlineConnect=0;" vertex="1" parent="1">
          <mxGeometry x="50" y="120" width="30" height="60" as="geometry" />
        </mxCell>
        <mxCell id="y5Li-COG7_jY7tWwNhx1-4" value="The Smoker RV2" style="verticalLabelPosition=bottom;outlineConnect=0;align=center;dashed=0;html=1;verticalAlign=top;shape=mxgraph.pid.misc.tank_car,_tank_wagon;" vertex="1" parent="1">
          <mxGeometry x="35" y="330" width="60" height="40" as="geometry" />
        </mxCell>
        <mxCell id="y5Li-COG7_jY7tWwNhx1-5" value="IRL" style="text;html=1;align=center;verticalAlign=middle;whiteSpace=wrap;rounded=0;strokeWidth=8;fontSize=20;" vertex="1" parent="1">
          <mxGeometry x="35" y="40" width="60" height="30" as="geometry" />
        </mxCell>
        <mxCell id="y5Li-COG7_jY7tWwNhx1-9" value="" style="endArrow=none;html=1;rounded=0;strokeWidth=3;" edge="1" parent="1">
          <mxGeometry width="50" height="50" relative="1" as="geometry">
            <mxPoint x="120" y="440" as="sourcePoint" />
            <mxPoint x="120" y="30" as="targetPoint" />
          </mxGeometry>
        </mxCell>
        <mxCell id="y5Li-COG7_jY7tWwNhx1-10" value="" style="endArrow=none;html=1;rounded=0;strokeWidth=3;" edge="1" parent="1">
          <mxGeometry width="50" height="50" relative="1" as="geometry">
            <mxPoint x="800" y="80" as="sourcePoint" />
            <mxPoint y="80" as="targetPoint" />
          </mxGeometry>
        </mxCell>
        <mxCell id="y5Li-COG7_jY7tWwNhx1-13" value="SOFTWARE" style="text;html=1;align=center;verticalAlign=middle;whiteSpace=wrap;rounded=0;strokeWidth=8;fontSize=20;" vertex="1" parent="1">
          <mxGeometry x="260" y="40" width="60" height="30" as="geometry" />
        </mxCell>
        <mxCell id="y5Li-COG7_jY7tWwNhx1-14" value="SERVER" style="text;html=1;align=center;verticalAlign=middle;whiteSpace=wrap;rounded=0;strokeWidth=8;fontSize=20;" vertex="1" parent="1">
          <mxGeometry x="540" y="40" width="60" height="30" as="geometry" />
        </mxCell>
        <mxCell id="y5Li-COG7_jY7tWwNhx1-18" value="Input" style="edgeStyle=orthogonalEdgeStyle;rounded=0;orthogonalLoop=1;jettySize=auto;html=1;entryX=0;entryY=0.5;entryDx=0;entryDy=0;" edge="1" parent="1" source="y5Li-COG7_jY7tWwNhx1-15" target="y5Li-COG7_jY7tWwNhx1-17">
          <mxGeometry x="0.3333" relative="1" as="geometry">
            <mxPoint as="offset" />
          </mxGeometry>
        </mxCell>
        <mxCell id="y5Li-COG7_jY7tWwNhx1-15" value="Take Input" style="ellipse;whiteSpace=wrap;html=1;aspect=fixed;" vertex="1" parent="1">
          <mxGeometry x="240" y="110" width="80" height="80" as="geometry" />
        </mxCell>
        <mxCell id="y5Li-COG7_jY7tWwNhx1-16" value="Input" style="endArrow=classic;html=1;rounded=0;entryX=0;entryY=0.5;entryDx=0;entryDy=0;" edge="1" parent="1" target="y5Li-COG7_jY7tWwNhx1-15">
          <mxGeometry width="50" height="50" relative="1" as="geometry">
            <mxPoint x="120" y="150" as="sourcePoint" />
            <mxPoint x="450" y="260" as="targetPoint" />
          </mxGeometry>
        </mxCell>
        <mxCell id="y5Li-COG7_jY7tWwNhx1-20" value="Input" style="edgeStyle=orthogonalEdgeStyle;rounded=0;orthogonalLoop=1;jettySize=auto;html=1;entryX=0.5;entryY=0;entryDx=0;entryDy=0;" edge="1" parent="1" source="y5Li-COG7_jY7tWwNhx1-17" target="y5Li-COG7_jY7tWwNhx1-19">
          <mxGeometry relative="1" as="geometry" />
        </mxCell>
        <mxCell id="y5Li-COG7_jY7tWwNhx1-26" value="New&lt;div&gt;State&lt;/div&gt;" style="edgeStyle=orthogonalEdgeStyle;rounded=0;orthogonalLoop=1;jettySize=auto;html=1;exitX=0;exitY=0;exitDx=0;exitDy=0;entryX=1;entryY=0.5;entryDx=0;entryDy=0;" edge="1" parent="1" source="y5Li-COG7_jY7tWwNhx1-17" target="y5Li-COG7_jY7tWwNhx1-24">
          <mxGeometry x="0.1715" relative="1" as="geometry">
            <mxPoint as="offset" />
          </mxGeometry>
        </mxCell>
        <mxCell id="y5Li-COG7_jY7tWwNhx1-17" value="Server" style="ellipse;whiteSpace=wrap;html=1;aspect=fixed;" vertex="1" parent="1">
          <mxGeometry x="530" y="110" width="80" height="80" as="geometry" />
        </mxCell>
        <mxCell id="y5Li-COG7_jY7tWwNhx1-22" value="New&lt;div&gt;State&lt;/div&gt;" style="edgeStyle=orthogonalEdgeStyle;rounded=0;orthogonalLoop=1;jettySize=auto;html=1;entryX=1;entryY=0.5;entryDx=0;entryDy=0;" edge="1" parent="1" source="y5Li-COG7_jY7tWwNhx1-19" target="y5Li-COG7_jY7tWwNhx1-21">
          <mxGeometry x="-0.6093" relative="1" as="geometry">
            <Array as="points">
              <mxPoint x="470" y="350" />
              <mxPoint x="470" y="350" />
            </Array>
            <mxPoint as="offset" />
          </mxGeometry>
        </mxCell>
        <mxCell id="y5Li-COG7_jY7tWwNhx1-19" value="Robot State" style="ellipse;whiteSpace=wrap;html=1;aspect=fixed;" vertex="1" parent="1">
          <mxGeometry x="530" y="300" width="80" height="80" as="geometry" />
        </mxCell>
        <mxCell id="y5Li-COG7_jY7tWwNhx1-23" value="Change&lt;div&gt;State&lt;/div&gt;" style="edgeStyle=orthogonalEdgeStyle;rounded=0;orthogonalLoop=1;jettySize=auto;html=1;" edge="1" parent="1">
          <mxGeometry relative="1" as="geometry">
            <mxPoint x="120" y="349.5" as="targetPoint" />
            <mxPoint x="290" y="349.5" as="sourcePoint" />
            <Array as="points">
              <mxPoint x="170" y="349.5" />
            </Array>
          </mxGeometry>
        </mxCell>
        <mxCell id="y5Li-COG7_jY7tWwNhx1-21" value="Robot Software" style="ellipse;whiteSpace=wrap;html=1;aspect=fixed;" vertex="1" parent="1">
          <mxGeometry x="240" y="310" width="80" height="80" as="geometry" />
        </mxCell>
        <mxCell id="y5Li-COG7_jY7tWwNhx1-28" value="New&lt;div&gt;State&lt;/div&gt;" style="edgeStyle=orthogonalEdgeStyle;rounded=0;orthogonalLoop=1;jettySize=auto;html=1;exitX=0;exitY=0.5;exitDx=0;exitDy=0;" edge="1" parent="1" source="y5Li-COG7_jY7tWwNhx1-24">
          <mxGeometry relative="1" as="geometry">
            <mxPoint x="120" y="180" as="targetPoint" />
            <Array as="points">
              <mxPoint x="180" y="250" />
              <mxPoint x="180" y="180" />
            </Array>
          </mxGeometry>
        </mxCell>
        <mxCell id="y5Li-COG7_jY7tWwNhx1-24" value="See State" style="ellipse;whiteSpace=wrap;html=1;aspect=fixed;" vertex="1" parent="1">
          <mxGeometry x="240" y="210" width="80" height="80" as="geometry" />
        </mxCell>
        <mxCell id="y5Li-COG7_jY7tWwNhx1-25" value="" style="endArrow=classic;html=1;rounded=0;entryX=0;entryY=1;entryDx=0;entryDy=0;" edge="1" parent="1" target="y5Li-COG7_jY7tWwNhx1-17">
          <mxGeometry width="50" height="50" relative="1" as="geometry">
            <mxPoint x="460" y="350" as="sourcePoint" />
            <mxPoint x="501.71572875253787" y="180.28427124746213" as="targetPoint" />
            <Array as="points">
              <mxPoint x="460" y="178" />
            </Array>
          </mxGeometry>
        </mxCell>
      </root>
    </mxGraphModel>
  </diagram>
</mxfile>
